<svg width="64" height="64" viewBox="0 0 64 64" fill="none" xmlns="http://www.w3.org/2000/svg">
<rect width="64" height="64" rx="16" fill="#4318FF"/>
<path d="M35.71 32.71C36.6904 31.9387 37.406 30.8809 37.7572 29.6839C38.1085 28.487 38.0779 27.2103 37.6698 26.0315C37.2617 24.8527 36.4963 23.8304 35.4801 23.1069C34.4639 22.3833 33.2474 21.9945 32 21.9945C30.7525 21.9945 29.5361 22.3833 28.5199 23.1069C27.5037 23.8304 26.7383 24.8527 26.3302 26.0315C25.9221 27.2103 25.8915 28.487 26.2428 29.6839C26.594 30.8809 27.3096 31.9387 28.29 32.71C26.6101 33.383 25.1443 34.4994 24.0489 35.9399C22.9535 37.3805 22.2696 39.0913 22.07 40.89C22.0556 41.0213 22.0671 41.1542 22.104 41.2811C22.1409 41.4079 22.2025 41.5263 22.2851 41.6293C22.452 41.8375 22.6948 41.9708 22.96 42C23.2252 42.0292 23.4912 41.9518 23.6993 41.7849C23.9075 41.618 24.0408 41.3752 24.07 41.11C24.2896 39.1552 25.2217 37.3498 26.6882 36.0388C28.1547 34.7278 30.0529 34.003 32.02 34.003C33.9871 34.003 35.8852 34.7278 37.3518 36.0388C38.8183 37.3498 39.7504 39.1552 39.97 41.11C39.9972 41.3557 40.1144 41.5827 40.2991 41.747C40.4838 41.9114 40.7228 42.0015 40.97 42H41.08C41.3421 41.9698 41.5817 41.8373 41.7466 41.6313C41.9114 41.4252 41.9881 41.1624 41.96 40.9C41.7595 39.0962 41.0719 37.381 39.9708 35.9382C38.8698 34.4954 37.3969 33.3795 35.71 32.71ZM32 32C31.2089 32 30.4355 31.7654 29.7777 31.3259C29.1199 30.8864 28.6072 30.2616 28.3045 29.5307C28.0017 28.7998 27.9225 27.9956 28.0769 27.2196C28.2312 26.4437 28.6122 25.731 29.1716 25.1716C29.731 24.6122 30.4437 24.2312 31.2196 24.0769C31.9956 23.9225 32.7998 24.0017 33.5307 24.3045C34.2616 24.6072 34.8863 25.1199 35.3259 25.7777C35.7654 26.4355 36 27.2089 36 28C36 29.0609 35.5786 30.0783 34.8284 30.8284C34.0783 31.5786 33.0609 32 32 32Z" fill="white"/>
</svg>
