<svg width="110" height="55" viewBox="0 0 110 55" fill="none" xmlns="http://www.w3.org/2000/svg">
<path fill-rule="evenodd" clip-rule="evenodd" d="M56.7885 19.5781C56.7885 19.9886 56.6668 20.3898 56.4388 20.7311C56.2107 21.0724 55.8866 21.3384 55.5074 21.4955C55.1282 21.6526 54.7109 21.6937 54.3083 21.6136C53.9057 21.5335 53.5359 21.3359 53.2457 21.0456C52.9555 20.7554 52.7578 20.3856 52.6777 19.983C52.5976 19.5804 52.6387 19.1632 52.7958 18.7839C52.9529 18.4047 53.2189 18.0806 53.5602 17.8526C53.9015 17.6245 54.3027 17.5028 54.7132 17.5028C54.986 17.502 55.2562 17.5551 55.5084 17.659C55.7606 17.763 55.9897 17.9159 56.1826 18.1088C56.3754 18.3016 56.5283 18.5308 56.6323 18.7829C56.7363 19.0351 56.7894 19.3054 56.7885 19.5781ZM48.2268 23.749V24.2623C47.8352 23.8385 47.3562 23.5047 46.8231 23.284C46.2899 23.0632 45.7152 22.9607 45.1386 22.9835C44.3123 22.9746 43.4929 23.1333 42.7296 23.4499C41.9664 23.7665 41.2752 24.2345 40.6979 24.8256C40.1205 25.4167 39.669 26.1187 39.3705 26.8892C39.072 27.6597 38.9328 28.4827 38.9612 29.3085C38.9319 30.1343 39.0703 30.9575 39.368 31.7283C39.6657 32.4991 40.1165 33.2016 40.6933 33.7934C41.27 34.3851 41.9607 34.8538 42.7236 35.1712C43.4866 35.4886 44.3059 35.648 45.1322 35.64C45.7122 35.6666 46.2907 35.5628 46.8252 35.3361C47.3597 35.1094 47.8365 34.7656 48.2204 34.33V34.8736C48.2196 34.9323 48.2305 34.9905 48.2525 35.0448C48.2745 35.0991 48.3073 35.1485 48.3487 35.1899C48.3902 35.2314 48.4395 35.2641 48.4939 35.2861C48.5482 35.3082 48.6064 35.3191 48.665 35.3182H51.2537V23.2833H48.687C48.5701 23.2865 48.4589 23.3344 48.3762 23.4171C48.2935 23.4998 48.2457 23.611 48.2424 23.7279L48.2268 23.749ZM48.2268 31.4453C47.9305 31.8536 47.541 32.1854 47.0909 32.4132C46.6407 32.641 46.1427 32.7582 45.6382 32.7552C43.594 32.7552 42.0311 31.4765 42.0311 29.3085C42.0311 27.1406 43.594 25.8619 45.6382 25.8619C46.1415 25.8657 46.6371 25.9859 47.0862 26.2132C47.5353 26.4404 47.9257 26.7685 48.2268 27.1718V31.4526V31.4453ZM53.1768 23.3035H56.266V35.3118H53.1768V23.2833V23.3035ZM98.9799 22.9826C98.4033 22.9598 97.8286 23.0623 97.2955 23.2831C96.7623 23.5038 96.2834 23.8376 95.8917 24.2614V17.522H92.8025V35.31H95.3903C95.5072 35.3067 95.6184 35.2589 95.701 35.1762C95.7837 35.0935 95.8316 34.9823 95.8349 34.8654V34.3218C96.2214 34.7524 96.6977 35.0928 97.2302 35.3192C97.7627 35.5455 98.3384 35.6522 98.9167 35.6317C99.7422 35.638 100.561 35.4776 101.323 35.1601C102.085 34.8426 102.775 34.3746 103.352 33.784C103.928 33.1934 104.38 32.4924 104.679 31.7231C104.979 30.9537 105.12 30.1319 105.094 29.3067C105.121 28.4814 104.98 27.6592 104.681 26.8895C104.382 26.1198 103.93 25.4185 103.353 24.8278C102.776 24.237 102.086 23.7689 101.323 23.4517C100.561 23.1345 99.7424 22.9746 98.9167 22.9817L98.9799 22.9826ZM98.4584 32.725C97.9531 32.7321 97.4537 32.6167 97.0028 32.3885C96.552 32.1604 96.1632 31.8264 95.8697 31.415V27.1333C96.1809 26.7408 96.5734 26.4205 97.0203 26.1944C97.4672 25.9682 97.9578 25.8417 98.4584 25.8234C100.503 25.8234 102.065 27.1021 102.065 29.27C102.065 31.438 100.503 32.7167 98.4584 32.7167V32.725ZM91.2369 28.1911V35.3439H88.1477V28.5486C88.1477 26.5659 87.5298 25.7693 85.7827 25.7693C85.312 25.7857 84.8496 25.8989 84.4246 26.1019C83.9996 26.3049 83.6209 26.5932 83.3123 26.949V35.3127H80.2231V23.2833H82.6504C82.7673 23.2865 82.8785 23.3344 82.9612 23.4171C83.0439 23.4998 83.0918 23.611 83.095 23.7279V24.2412C83.5213 23.8168 84.0301 23.4843 84.59 23.2644C85.1499 23.0444 85.7489 22.9417 86.3501 22.9625C87.5717 22.9173 88.7667 23.3265 89.7042 24.111C90.7914 25.0066 91.2048 26.1552 91.2048 28.1691L91.2369 28.1911ZM72.8119 22.9845C72.2352 22.9616 71.6605 23.0641 71.1274 23.2849C70.5942 23.5057 70.1153 23.8394 69.7236 24.2632V17.5239H66.6344V35.31H69.2231C69.34 35.3067 69.4512 35.2589 69.5339 35.1762C69.6166 35.0935 69.6645 34.9823 69.6677 34.8654V34.3218C70.0549 34.7532 70.5323 35.0942 71.066 35.3205C71.5997 35.5469 72.1766 35.6531 72.7559 35.6317C73.5815 35.638 74.3998 35.4776 75.1618 35.1601C75.9239 34.8426 76.614 34.3746 77.1908 33.784C77.7676 33.1934 78.2193 32.4924 78.5187 31.7231C78.8181 30.9537 78.9592 30.1319 78.9333 29.3067C78.9653 28.48 78.8285 27.6555 78.5313 26.8834C78.2341 26.1113 77.7827 25.4078 77.2046 24.816C76.6266 24.2241 75.934 23.7562 75.1691 23.4409C74.4043 23.1255 73.5832 22.9693 72.7559 22.9817L72.8119 22.9845ZM72.2967 32.725C71.7915 32.7321 71.292 32.6167 70.8412 32.3885C70.3903 32.1604 70.0015 31.8264 69.708 31.415V27.1333C70.0192 26.7408 70.4118 26.4205 70.8587 26.1944C71.3056 25.9682 71.7962 25.8417 72.2967 25.8234C74.3409 25.8234 75.9038 27.1021 75.9038 29.27C75.9038 31.438 74.3409 32.7167 72.2967 32.7167V32.725ZM63.9733 22.9808C64.448 22.9657 64.9223 23.0198 65.3814 23.1412V25.9829C65.3814 25.9829 62.8147 25.1368 61.2307 26.9399V35.3411H58.1415V23.2833H60.7302C60.8471 23.2865 60.9583 23.3344 61.041 23.4171C61.1236 23.4998 61.1715 23.611 61.1748 23.7279V24.2412C61.9072 23.4803 62.8997 23.0236 63.9541 22.9625L63.9733 22.9808ZM32.1283 34.2237L31.6462 33.0751L30.911 31.4435L30.8798 31.4123C28.6458 26.5439 26.2936 21.7305 23.8252 16.9766L23.7262 16.7933L22.9653 15.2625C22.6507 14.6357 22.2653 14.047 21.8168 13.508C21.3287 12.8929 20.7066 12.3973 19.9979 12.0591C19.2892 11.7209 18.5127 11.549 17.7275 11.5564C16.9476 11.559 16.1777 11.7316 15.4715 12.0624C14.7652 12.3931 14.1396 12.8739 13.6383 13.4713C13.2005 14.0183 12.8159 14.6058 12.4897 15.2258L11.6253 16.918C9.15485 21.7121 6.76968 26.5613 4.5651 31.3536L4.53393 31.415C4.3506 31.9403 4.08935 32.4784 3.82993 33.0522C3.66921 33.4024 3.50848 33.7852 3.34776 34.2008C2.94024 35.3011 2.80868 36.4845 2.9646 37.6475C3.13648 38.8153 3.60964 39.9183 4.33746 40.8477C5.06527 41.7771 6.02264 42.5008 7.11526 42.9476C7.93453 43.292 8.81524 43.4664 9.70393 43.46C9.98079 43.4554 10.2572 43.4349 10.5317 43.3986C11.6586 43.2549 12.7448 42.8851 13.7253 42.3115C15.2147 41.4233 16.5514 40.3013 17.6844 38.9885C18.8245 40.2941 20.1601 41.415 21.6435 42.3115C22.624 42.8853 23.7103 43.2551 24.8372 43.3986C25.1117 43.4349 25.3881 43.4554 25.6649 43.46C26.5539 43.4693 27.4352 43.2949 28.2536 42.9476C29.3462 42.5008 30.3036 41.7771 31.0314 40.8477C31.7592 39.9183 32.2324 38.8153 32.4043 37.6475C32.6395 36.5048 32.5386 35.3185 32.1137 34.232L32.1283 34.2237ZM17.7293 35.8856C16.006 33.7113 14.8877 31.6726 14.5045 29.9429C14.348 29.3064 14.3144 28.6459 14.4055 27.9968C14.4687 27.516 14.6443 27.0569 14.9179 26.6566C15.238 26.2126 15.6608 25.8526 16.1502 25.6074C16.6396 25.3622 17.1811 25.2391 17.7284 25.2486C18.277 25.2275 18.822 25.345 19.3132 25.5901C19.8044 25.8352 20.226 26.2001 20.5389 26.6511C20.8126 27.0514 20.9881 27.5105 21.0513 27.9913C21.1429 28.6404 21.1093 29.301 20.9523 29.9374C20.5692 31.6295 19.4518 33.6435 17.7275 35.8801L17.7293 35.8856ZM30.4728 37.3862C30.3527 38.2039 30.0211 38.976 29.5108 39.626C29.0004 40.2761 28.3291 40.7815 27.5633 41.0923C26.7996 41.4153 25.9656 41.5365 25.1415 41.4443C24.2841 41.3382 23.4578 41.0564 22.7142 40.6165C21.3436 39.789 20.1151 38.7463 19.0759 37.5283C21.1824 34.9396 22.4612 32.5783 22.9424 30.4681C23.1502 29.5779 23.2045 28.6587 23.1028 27.7502C22.9842 26.969 22.6885 26.2253 22.2384 25.5759C21.7323 24.8535 21.0563 24.2667 20.27 23.8671C19.4837 23.4675 18.6112 23.2673 17.7293 23.2842C16.852 23.273 15.9848 23.4732 15.2011 23.8677C14.4174 24.2623 13.7402 24.8397 13.2267 25.5511C12.7766 26.2005 12.4809 26.9443 12.3623 27.7255C12.2272 28.6328 12.2819 29.5582 12.5227 30.4434C13.0048 32.5499 14.3138 34.946 16.3892 37.5347C15.3573 38.76 14.1276 39.8038 12.7509 40.623C12.0074 41.0724 11.1787 41.3627 10.3172 41.4755C9.49402 41.5669 8.66099 41.4568 7.88985 41.1546C7.12407 40.8438 6.45277 40.3384 5.94244 39.6884C5.43211 39.0383 5.10046 38.2662 4.98035 37.4485C4.87937 36.6137 4.97899 35.7668 5.27093 34.9781C5.36993 34.6573 5.52393 34.3603 5.68343 33.9588C5.90618 33.4455 6.1656 32.9028 6.4186 32.3592L6.44976 32.2978C8.65526 27.5311 11.0148 22.6865 13.4806 17.9547L13.5723 17.7255L14.3386 16.2552C14.5873 15.7484 14.8963 15.2735 15.2589 14.8408C15.5738 14.4708 15.9653 14.1736 16.4063 13.9699C16.8474 13.7661 17.3274 13.6605 17.8132 13.6605C18.2991 13.6605 18.7791 13.7661 19.2201 13.9699C19.6611 14.1736 20.0526 14.4708 20.3675 14.8408C20.712 15.2724 21.0043 15.7432 21.2383 16.2433L22.0047 17.7136L22.0963 17.897C24.5237 22.66 26.896 27.5082 29.0951 32.2703V32.3015C29.3481 32.8148 29.5773 33.3886 29.8303 33.9011C29.9907 34.2842 30.1511 34.605 30.2428 34.9204C30.508 35.7154 30.5842 36.5612 30.4655 37.3908L30.4728 37.3862Z" fill="#6B7280"/>
</svg>
