<svg width="156" height="36" viewBox="0 0 156 36" fill="none" xmlns="http://www.w3.org/2000/svg">
<mask id="mask0_1_16013" style="mask-type:alpha" maskUnits="userSpaceOnUse" x="0" y="1" width="30" height="34">
<path d="M12.0589 2.44615C13.8053 1.43787 15.9569 1.43787 17.7033 2.44615L26.94 7.77895C28.6864 8.78722 29.7622 10.6506 29.7622 12.6671V23.3327C29.7622 25.3493 28.6864 27.2127 26.94 28.2209L17.7033 33.5537C15.9569 34.562 13.8053 34.562 12.0589 33.5537L2.8222 28.2209C1.07582 27.2127 0 25.3493 0 23.3327V12.6671C0 10.6506 1.07582 8.78722 2.8222 7.77895L12.0589 2.44615Z" fill="#C4C4C4"/>
</mask>
<g mask="url(#mask0_1_16013)">
<path d="M14.8768 0.535889L31.1887 9.95352L22.9338 14.3983L19.5241 12.5384L16.4243 12.8484L8.67486 10.0586L6.815 12.5384L5.88507 13.7783L4.02521 12.5384L-1.43499 9.95353L14.8768 0.535889Z" fill="url(#paint0_linear_1_16013)"/>
<path d="M-0.12854 10.087L6.19935 13.1556L9.91908 22.1449L9.91908 22.4549L11.159 24.0048L16.7386 28.3445L14.8806 36.0836L-0.12854 27.4181L-0.12854 10.087Z" fill="url(#paint1_linear_1_16013)"/>
<path d="M19.8341 22.4543L23.8638 13.7749L29.886 10.0887L29.886 27.4197L14.8769 36.0852L14.5645 28.3438L19.8341 22.4543Z" fill="url(#paint2_linear_1_16013)"/>
<path d="M14.8762 7.58276C12.3114 7.58276 9.97404 8.55624 8.21317 10.1538L9.64274 22.4616C10.0337 22.642 12.2758 23.3916 12.7064 23.3916H15.8062C16.354 23.3916 20.1459 22.2238 20.1459 22.7716L19.8359 21.4696C19.8359 22.0175 19.3918 22.4616 18.844 22.4616H10.9085C10.3607 22.4616 9.91661 22.0175 9.91661 21.4696V16.6676C9.91661 16.237 9.82317 15.8116 9.64274 15.4206L8.21317 10.1538C6.61557 11.9146 4.95697 14.9372 4.95697 17.502C4.95697 22.9804 9.39793 27.4213 14.8762 27.4213C20.3546 27.4213 24.7955 22.9804 24.7955 17.502C24.7955 12.0237 20.3546 7.58276 14.8762 7.58276Z" fill="url(#paint3_linear_1_16013)"/>
<path d="M13.0393 11.7229C13.2582 11.6384 13.4926 11.6053 13.7245 11.6259C13.9565 11.6466 14.1799 11.7206 14.378 11.8423C14.5761 11.964 14.7436 12.1302 14.8678 12.3283C14.992 12.5264 15.0697 12.7512 15.0949 12.9858C15.275 14.6757 14.8955 16.3867 14.0159 17.8504C13.1364 19.314 11.8065 20.4474 10.2351 21.0727L9.12304 18.1973C10.0617 17.8235 10.8568 17.1475 11.3845 16.2745C11.9123 15.4015 12.1433 14.3804 12.0414 13.3702C12.0043 13.0252 12.0821 12.6758 12.2623 12.3774C12.4426 12.079 12.7151 11.8486 13.0366 11.7229L13.0393 11.7229Z" fill="#9C5AFF"/>
<path d="M13.0265 11.7277C12.6466 11.8791 12.3394 12.1762 12.1723 12.5539C12.0052 12.9316 11.9919 13.3588 12.1354 13.7417L15.3854 22.4086C15.5291 22.7914 15.8177 23.0985 16.1879 23.2623C16.558 23.426 16.9794 23.4331 17.3593 23.282C17.5475 23.2071 17.7198 23.0957 17.8664 22.9539C18.0131 22.8122 18.1311 22.643 18.2139 22.4559C18.2967 22.2689 18.3425 22.0677 18.3488 21.8639C18.355 21.66 18.3216 21.4575 18.2504 21.2679L15.0004 12.6011C14.9294 12.4115 14.822 12.2384 14.6843 12.0919C14.5466 11.9453 14.3814 11.8282 14.1981 11.7471C14.0148 11.6659 13.817 11.6225 13.6159 11.6192C13.4149 11.6159 13.2146 11.6527 13.0265 11.7277Z" fill="#9C5AFF"/>
<path d="M17.345 23.2841C17.1261 23.3687 16.8918 23.4019 16.6599 23.3813C16.428 23.3607 16.2046 23.2867 16.0065 23.1651C15.8084 23.0435 15.6409 22.8774 15.5167 22.6793C15.3925 22.4812 15.3148 22.2564 15.2896 22.0219C15.1096 20.332 15.4892 18.621 16.3687 17.1573C17.2482 15.6935 18.5779 14.56 20.1491 13.9344L21.2613 16.8109C20.3226 17.1847 19.5275 17.8607 18.9998 18.7337C18.472 19.6067 18.241 20.6277 18.3429 21.638C18.3795 21.9831 18.3011 22.3324 18.1204 22.6306C17.9396 22.9288 17.6667 23.1588 17.345 23.2841Z" fill="#9C5AFF"/>
</g>
<path d="M43.4838 27V9.54545H46.6457V24.3494H54.3332V27H43.4838ZM60.7082 27.2642C59.8787 27.2642 59.1315 27.1165 58.4668 26.821C57.8077 26.5199 57.2849 26.0767 56.8986 25.4915C56.5179 24.9062 56.3275 24.1847 56.3275 23.3267C56.3275 22.5881 56.4639 21.9773 56.7366 21.4943C57.0094 21.0114 57.3815 20.625 57.8531 20.3352C58.3247 20.0455 58.856 19.8267 59.4469 19.679C60.0435 19.5256 60.6599 19.4148 61.2963 19.3466C62.0633 19.267 62.6855 19.196 63.1628 19.1335C63.64 19.0653 63.9866 18.9631 64.2025 18.8267C64.4241 18.6847 64.5349 18.4659 64.5349 18.1705V18.1193C64.5349 17.4773 64.3446 16.9801 63.9639 16.6278C63.5832 16.2756 63.0349 16.0994 62.319 16.0994C61.5633 16.0994 60.9639 16.2642 60.5207 16.5938C60.0832 16.9233 59.7878 17.3125 59.6344 17.7614L56.7537 17.3523C56.981 16.5568 57.356 15.892 57.8787 15.358C58.4014 14.8182 59.0406 14.4148 59.7963 14.1477C60.552 13.875 61.3872 13.7386 62.302 13.7386C62.9327 13.7386 63.5605 13.8125 64.1855 13.9602C64.8105 14.108 65.3815 14.3523 65.8986 14.6932C66.4156 15.0284 66.8304 15.4858 67.1429 16.0653C67.4611 16.6449 67.6202 17.3693 67.6202 18.2386V27H64.6543V25.2017H64.552C64.3645 25.5653 64.1003 25.9062 63.7594 26.2244C63.4241 26.5369 63.0008 26.7898 62.4895 26.983C61.9838 27.1705 61.39 27.2642 60.7082 27.2642ZM61.5094 24.9972C62.1287 24.9972 62.6656 24.875 63.1202 24.6307C63.5747 24.3807 63.9241 24.0511 64.1685 23.642C64.4185 23.233 64.5435 22.7869 64.5435 22.304V20.7614C64.4469 20.8409 64.2821 20.9148 64.0491 20.983C63.8219 21.0511 63.5662 21.1108 63.2821 21.1619C62.998 21.2131 62.7168 21.2585 62.4383 21.2983C62.1599 21.3381 61.9185 21.3722 61.7139 21.4006C61.2537 21.4631 60.8418 21.5653 60.4781 21.7074C60.1145 21.8494 59.8275 22.0483 59.6173 22.304C59.4071 22.554 59.302 22.8778 59.302 23.2756C59.302 23.8438 59.5094 24.2727 59.9241 24.5625C60.3389 24.8523 60.8673 24.9972 61.5094 24.9972ZM73.8077 19.3295V27H70.7224V13.9091H73.6713V16.1335H73.8247C74.1258 15.4006 74.606 14.8182 75.265 14.3864C75.9298 13.9545 76.7508 13.7386 77.7281 13.7386C78.6315 13.7386 79.4185 13.9318 80.0889 14.3182C80.765 14.7045 81.2878 15.2642 81.6571 15.9972C82.0321 16.7301 82.2168 17.6193 82.2111 18.6648V27H79.1258V19.142C79.1258 18.267 78.8986 17.5824 78.444 17.0881C77.9952 16.5937 77.373 16.3466 76.5775 16.3466C76.0378 16.3466 75.5577 16.4659 75.1372 16.7045C74.7224 16.9375 74.3957 17.2756 74.1571 17.7188C73.9241 18.1619 73.8077 18.6989 73.8077 19.3295ZM90.2054 27.2301C89.177 27.2301 88.2565 26.9659 87.444 26.4375C86.6315 25.9091 85.9895 25.142 85.5179 24.1364C85.0463 23.1307 84.8105 21.9091 84.8105 20.4716C84.8105 19.017 85.0491 17.7898 85.5264 16.7898C86.0094 15.7841 86.6599 15.0256 87.4781 14.5142C88.2963 13.9972 89.2082 13.7386 90.2139 13.7386C90.981 13.7386 91.6116 13.8693 92.106 14.1307C92.6003 14.3864 92.9923 14.696 93.2821 15.0597C93.5719 15.4176 93.7963 15.7557 93.9554 16.0739H94.0832V9.54545H97.177V27H94.1429V24.9375H93.9554C93.7963 25.2557 93.5662 25.5937 93.265 25.9517C92.9639 26.304 92.5662 26.6051 92.0719 26.8551C91.5775 27.1051 90.9554 27.2301 90.2054 27.2301ZM91.0662 24.6989C91.7196 24.6989 92.2764 24.5227 92.7366 24.1705C93.1969 23.8125 93.5463 23.3153 93.7849 22.679C94.0236 22.0426 94.1429 21.3011 94.1429 20.4545C94.1429 19.608 94.0236 18.8722 93.7849 18.2472C93.552 17.6222 93.2054 17.1364 92.7452 16.7898C92.2906 16.4432 91.731 16.2699 91.0662 16.2699C90.3787 16.2699 89.8048 16.4489 89.3446 16.8068C88.8844 17.1648 88.5378 17.6591 88.3048 18.2898C88.0719 18.9205 87.9554 19.642 87.9554 20.4545C87.9554 21.2727 88.0719 22.0028 88.3048 22.6449C88.5435 23.2812 88.8929 23.7841 89.3531 24.1534C89.819 24.517 90.39 24.6989 91.0662 24.6989ZM103.166 27L99.4675 13.9091H102.612L104.913 23.1136H105.033L107.385 13.9091H110.496L112.848 23.0625H112.976L115.243 13.9091H118.396L114.689 27H111.476L109.021 18.1534H108.842L106.388 27H103.166ZM120.551 27V13.9091H123.636V27H120.551ZM122.102 12.0511C121.613 12.0511 121.193 11.8892 120.84 11.5653C120.488 11.2358 120.312 10.8409 120.312 10.3807C120.312 9.91477 120.488 9.51989 120.84 9.19602C121.193 8.86648 121.613 8.7017 122.102 8.7017C122.596 8.7017 123.016 8.86648 123.363 9.19602C123.715 9.51989 123.891 9.91477 123.891 10.3807C123.891 10.8409 123.715 11.2358 123.363 11.5653C123.016 11.8892 122.596 12.0511 122.102 12.0511ZM129.894 19.3295V27H126.808V13.9091H129.757V16.1335H129.911C130.212 15.4006 130.692 14.8182 131.351 14.3864C132.016 13.9545 132.837 13.7386 133.814 13.7386C134.717 13.7386 135.504 13.9318 136.175 14.3182C136.851 14.7045 137.374 15.2642 137.743 15.9972C138.118 16.7301 138.303 17.6193 138.297 18.6648V27H135.212V19.142C135.212 18.267 134.985 17.5824 134.53 17.0881C134.081 16.5937 133.459 16.3466 132.663 16.3466C132.124 16.3466 131.644 16.4659 131.223 16.7045C130.808 16.9375 130.482 17.2756 130.243 17.7188C130.01 18.1619 129.894 18.6989 129.894 19.3295ZM146.291 27.2301C145.263 27.2301 144.342 26.9659 143.53 26.4375C142.717 25.9091 142.075 25.142 141.604 24.1364C141.132 23.1307 140.896 21.9091 140.896 20.4716C140.896 19.017 141.135 17.7898 141.612 16.7898C142.095 15.7841 142.746 15.0256 143.564 14.5142C144.382 13.9972 145.294 13.7386 146.3 13.7386C147.067 13.7386 147.698 13.8693 148.192 14.1307C148.686 14.3864 149.078 14.696 149.368 15.0597C149.658 15.4176 149.882 15.7557 150.041 16.0739H150.169V9.54545H153.263V27H150.229V24.9375H150.041C149.882 25.2557 149.652 25.5937 149.351 25.9517C149.05 26.304 148.652 26.6051 148.158 26.8551C147.663 27.1051 147.041 27.2301 146.291 27.2301ZM147.152 24.6989C147.806 24.6989 148.362 24.5227 148.823 24.1705C149.283 23.8125 149.632 23.3153 149.871 22.679C150.11 22.0426 150.229 21.3011 150.229 20.4545C150.229 19.608 150.11 18.8722 149.871 18.2472C149.638 17.6222 149.291 17.1364 148.831 16.7898C148.377 16.4432 147.817 16.2699 147.152 16.2699C146.465 16.2699 145.891 16.4489 145.431 16.8068C144.97 17.1648 144.624 17.6591 144.391 18.2898C144.158 18.9205 144.041 19.642 144.041 20.4545C144.041 21.2727 144.158 22.0028 144.391 22.6449C144.629 23.2812 144.979 23.7841 145.439 24.1534C145.905 24.517 146.476 24.6989 147.152 24.6989Z" fill="#111928"/>
<defs>
<linearGradient id="paint0_linear_1_16013" x1="14.5644" y1="1.9992" x2="14.2819" y2="13.3215" gradientUnits="userSpaceOnUse">
<stop stop-color="#4E00D3"/>
<stop offset="1" stop-color="#7A36F0"/>
</linearGradient>
<linearGradient id="paint1_linear_1_16013" x1="14.8787" y1="24.9347" x2="5.90309" y2="14.1731" gradientUnits="userSpaceOnUse">
<stop stop-color="#5508D8"/>
<stop offset="1" stop-color="#7935EF"/>
</linearGradient>
<linearGradient id="paint2_linear_1_16013" x1="14.8744" y1="26.174" x2="23.4474" y2="14.7149" gradientUnits="userSpaceOnUse">
<stop stop-color="#5205D6"/>
<stop offset="1" stop-color="#7A35F0"/>
</linearGradient>
<linearGradient id="paint3_linear_1_16013" x1="14.8762" y1="7.58276" x2="14.8762" y2="27.4213" gradientUnits="userSpaceOnUse">
<stop stop-color="#7935EF"/>
<stop offset="1" stop-color="#6117E0"/>
</linearGradient>
</defs>
</svg>
