<svg width="136" height="38" viewBox="0 0 136 38" fill="none" xmlns="http://www.w3.org/2000/svg">
<g clip-path="url(#clip0_1_22539)">
<path d="M52.8403 14.3357C51.1058 14.3357 50.2477 15.7006 49.854 16.581C49.6341 17.0726 49.5726 17.4613 49.3942 17.4613C49.1428 17.4613 49.3228 17.1235 49.1171 16.3743C48.8465 15.3886 48.0307 14.3357 46.2974 14.3357C44.4752 14.3357 43.695 15.8753 43.325 16.7213C43.072 17.2997 43.0717 17.4613 42.8771 17.4613C42.5952 17.4613 42.8288 17.0019 42.9556 16.4618C43.2055 15.3984 43.0155 14.5857 43.0155 14.5857H40.1268V25.4478H44.0697C44.0697 25.4478 44.0697 20.9083 44.0697 20.0435C44.0697 18.9775 44.5157 17.6249 45.28 17.6249C46.1631 17.6249 46.3398 18.3031 46.3398 19.559C46.3398 20.6976 46.3398 25.4502 46.3398 25.4502H50.2986C50.2986 25.4502 50.2986 20.8831 50.2986 20.0435C50.2986 19.0947 50.6858 17.6249 51.5146 17.6249C52.4101 17.6249 52.5686 18.5777 52.5686 19.559C52.5686 20.5403 52.5686 25.4478 52.5686 25.4478H56.4562C56.4562 25.4478 56.4562 21.144 56.4562 19.0603C56.4562 16.2256 55.4569 14.3357 52.8403 14.3357Z" fill="#6B7280"/>
<path d="M119.765 14.3357C118.031 14.3357 117.173 15.7006 116.779 16.581C116.559 17.0726 116.498 17.4613 116.319 17.4613C116.068 17.4613 116.236 17.0322 116.042 16.3743C115.753 15.3938 115.035 14.3357 113.222 14.3357C111.4 14.3357 110.62 15.8753 110.25 16.7213C109.997 17.2997 109.997 17.4613 109.802 17.4613C109.52 17.4613 109.754 17.0019 109.881 16.4618C110.131 15.3984 109.941 14.5857 109.941 14.5857H107.052V25.4478H110.995C110.995 25.4478 110.995 20.9083 110.995 20.0435C110.995 18.9775 111.441 17.6249 112.205 17.6249C113.088 17.6249 113.265 18.3031 113.265 19.559C113.265 20.6976 113.265 25.4502 113.265 25.4502H117.224C117.224 25.4502 117.224 20.8831 117.224 20.0435C117.224 19.0947 117.611 17.6249 118.44 17.6249C119.335 17.6249 119.494 18.5777 119.494 19.559C119.494 20.5403 119.494 25.4478 119.494 25.4478H123.381C123.381 25.4478 123.381 21.144 123.381 19.0603C123.381 16.2256 122.382 14.3357 119.765 14.3357Z" fill="#6B7280"/>
<path d="M62.2287 22.9091C61.2859 23.1268 60.7971 22.8364 60.7971 22.2115C60.7971 21.3554 61.6826 21.0125 62.9465 21.0125C63.5036 21.0125 64.0276 21.0607 64.0276 21.0607C64.0276 21.4272 63.2321 22.6776 62.2287 22.9091ZM63.1887 14.338C60.1683 14.338 58.0011 15.4485 58.0011 15.4485V18.7125C58.0011 18.7125 60.3945 17.3364 62.336 17.3364C63.8856 17.3364 64.0761 18.1722 64.0055 18.8659C64.0055 18.8659 63.5587 18.7476 62.1946 18.7476C58.981 18.7476 57.3587 20.2082 57.3587 22.5502C57.3587 24.7717 59.182 25.7003 60.718 25.7003C62.9595 25.7003 63.9448 24.1941 64.2476 23.4794C64.4578 22.9837 64.496 22.6495 64.6848 22.6495C64.8998 22.6495 64.8275 22.8892 64.8171 23.3826C64.7989 24.2467 64.8395 24.8999 64.9765 25.4501H67.9484V20.1045C67.9484 16.767 66.7675 14.338 63.1887 14.338Z" fill="#6B7280"/>
<path d="M74.4432 25.4502H78.3862V11.2975H74.4432V25.4502Z" fill="#6B7280"/>
<path d="M82.7262 20.0191C82.7262 19.0424 83.6335 18.1538 85.2993 18.1538C87.1143 18.1538 88.5742 19.0277 88.9016 19.2262V15.4485C88.9016 15.4485 87.7483 14.338 84.9136 14.338C81.9254 14.338 79.437 16.0866 79.437 19.85C79.437 23.6135 81.6953 25.7003 84.9056 25.7003C87.4131 25.7003 88.908 24.3225 88.908 24.3225V20.7343C88.4351 20.999 87.1173 21.9134 85.3174 21.9134C83.4115 21.9134 82.7262 21.0367 82.7262 20.0191Z" fill="#6B7280"/>
<path d="M96.8888 14.338C94.6063 14.338 93.7381 16.5011 93.5629 16.8767C93.3874 17.2522 93.3008 17.4683 93.1573 17.4637C92.9081 17.4555 93.0818 17.0026 93.1789 16.7093C93.3625 16.1552 93.7515 14.7015 93.7515 12.9148C93.7515 11.703 93.5876 11.2974 93.5876 11.2974H90.1838V25.4502H94.1268C94.1268 25.4502 94.1268 20.9261 94.1268 20.0459C94.1268 19.1655 94.4781 17.6272 95.4714 17.6272C96.2942 17.6272 96.5518 18.2369 96.5518 19.4645C96.5518 20.6919 96.5518 25.4502 96.5518 25.4502H100.495C100.495 25.4502 100.495 22.1397 100.495 19.7007C100.495 16.9125 100.033 14.338 96.8888 14.338Z" fill="#6B7280"/>
<path d="M101.776 14.6006V25.4502H105.719V14.6006C105.719 14.6006 105.057 14.9882 103.752 14.9882C102.447 14.9882 101.776 14.6006 101.776 14.6006Z" fill="#6B7280"/>
<path d="M103.736 11.1875C102.403 11.1875 101.322 11.8928 101.322 12.7628C101.322 13.6328 102.403 14.3381 103.736 14.3381C105.069 14.3381 106.15 13.6328 106.15 12.7628C106.15 11.8928 105.069 11.1875 103.736 11.1875Z" fill="#6B7280"/>
<path d="M69.2243 14.6006V25.4502H73.1672V14.6006C73.1672 14.6006 72.5045 14.9882 71.1998 14.9882C69.8952 14.9882 69.2243 14.6006 69.2243 14.6006Z" fill="#6B7280"/>
<path d="M71.1841 11.1875C69.8512 11.1875 68.7705 11.8928 68.7705 12.7628C68.7705 13.6328 69.8512 14.3381 71.1841 14.3381C72.5171 14.3381 73.5977 13.6328 73.5977 12.7628C73.5977 11.8928 72.5171 11.1875 71.1841 11.1875Z" fill="#6B7280"/>
<path d="M130.133 23.116C129.228 23.116 128.563 21.9692 128.563 20.3713C128.563 18.8196 129.246 17.6273 130.102 17.6273C131.199 17.6273 131.667 18.6335 131.667 20.3713C131.667 22.1792 131.235 23.116 130.133 23.116ZM131.215 14.3357C129.188 14.3357 128.259 15.8556 127.855 16.7213C127.589 17.2935 127.602 17.4613 127.407 17.4613C127.126 17.4613 127.359 17.0019 127.486 16.4618C127.736 15.3984 127.546 14.5857 127.546 14.5857H124.657V28.4477H128.6C128.6 28.4477 128.6 26.1794 128.6 24.0528C129.067 24.8443 129.931 25.69 131.263 25.69C134.115 25.69 135.55 23.2777 135.55 20.0183C135.55 16.324 133.832 14.3357 131.215 14.3357Z" fill="#6B7280"/>
<path d="M26.1971 17.6166C26.4622 17.585 26.7163 17.5835 26.9497 17.6166C27.0848 17.3068 27.108 16.7726 26.9864 16.191C26.8058 15.3264 26.5614 14.8032 26.0562 14.8846C25.5511 14.9661 25.5324 15.5925 25.713 16.457C25.8146 16.9433 25.9955 17.359 26.1971 17.6166Z" fill="#6B7280"/>
<path d="M21.8601 18.3007C22.2215 18.4594 22.4437 18.5645 22.5306 18.4726C22.5865 18.4153 22.5699 18.306 22.4836 18.165C22.3052 17.8738 21.9381 17.5785 21.5489 17.4126C20.7527 17.0698 19.8031 17.1839 19.0705 17.7102C18.8288 17.8874 18.5995 18.1328 18.6323 18.2819C18.643 18.3301 18.6792 18.3664 18.764 18.3783C18.9635 18.4011 19.6602 18.0487 20.4627 17.9997C21.0292 17.965 21.4986 18.1422 21.8601 18.3007Z" fill="#6B7280"/>
<path d="M21.133 18.7156C20.6622 18.7899 20.4025 18.9451 20.2358 19.0894C20.0936 19.2137 20.0057 19.3512 20.0064 19.4478C20.0067 19.4938 20.0267 19.5204 20.0425 19.5337C20.064 19.5526 20.0893 19.5631 20.1199 19.5631C20.2262 19.5631 20.4644 19.4674 20.4644 19.4674C21.1195 19.2329 21.5517 19.2614 21.9799 19.3102C22.2166 19.3367 22.3284 19.3515 22.3803 19.2703C22.3958 19.247 22.4143 19.1966 22.367 19.1198C22.2566 18.941 21.7814 18.6386 21.133 18.7155" fill="#6B7280"/>
<path d="M24.7326 20.2386C25.0522 20.3956 25.4041 20.3339 25.5188 20.1008C25.6332 19.8678 25.467 19.5515 25.1473 19.3943C24.8277 19.2374 24.4758 19.299 24.3612 19.5321C24.2467 19.7652 24.4129 20.0814 24.7326 20.2386Z" fill="#6B7280"/>
<path d="M26.7876 18.4429C26.5279 18.4385 26.3126 18.7236 26.3065 19.0797C26.3004 19.4359 26.5061 19.7281 26.7658 19.7325C27.0254 19.737 27.2409 19.4518 27.2468 19.0957C27.2529 18.7395 27.0472 18.4472 26.7876 18.4429Z" fill="#6B7280"/>
<path d="M9.34531 24.864C9.28071 24.7831 9.17459 24.8077 9.07183 24.8317C9.00005 24.8485 8.91872 24.8673 8.82956 24.8658C8.63857 24.862 8.47684 24.7805 8.38601 24.641C8.26771 24.4593 8.27455 24.1884 8.40518 23.8785C8.42275 23.8365 8.44352 23.7901 8.46611 23.7395C8.67431 23.2722 9.02292 22.4901 8.63157 21.7449C8.33699 21.184 7.8566 20.8347 7.279 20.7614C6.72451 20.6911 6.15362 20.8967 5.78948 21.2984C5.21501 21.9322 5.12522 22.7947 5.23633 23.0994C5.27706 23.211 5.34071 23.2418 5.38701 23.2482C5.48472 23.2612 5.62925 23.1902 5.7198 22.9466C5.72628 22.9291 5.7349 22.9019 5.7457 22.8674C5.7861 22.7387 5.86121 22.4988 5.98425 22.3066C6.1326 22.0749 6.36368 21.9153 6.63489 21.8572C6.91121 21.798 7.19362 21.8508 7.43002 22.0056C7.83251 22.2688 7.98746 22.7619 7.81564 23.2324C7.72685 23.4758 7.58254 23.941 7.61441 24.3235C7.67871 25.0972 8.15463 25.408 8.58226 25.441C8.99803 25.4566 9.28858 25.2233 9.3621 25.0527C9.40549 24.9518 9.36887 24.8904 9.34533 24.864" fill="#6B7280"/>
<path d="M13.2978 10.652C14.6537 9.08512 16.3231 7.72287 17.8183 6.95796C17.8701 6.93139 17.9249 6.98764 17.8969 7.03834C17.7781 7.25336 17.5496 7.71382 17.4771 8.06306C17.4658 8.11749 17.525 8.15842 17.571 8.12712C18.5012 7.49301 20.1196 6.81352 21.5391 6.72617C21.6 6.72239 21.6295 6.80061 21.581 6.83784C21.3651 7.00348 21.129 7.2326 20.9566 7.46439C20.9272 7.50382 20.9549 7.56063 21.004 7.56093C22.0007 7.56803 23.4058 7.91684 24.3217 8.43054C24.3837 8.46522 24.3395 8.58521 24.2702 8.56934C22.8846 8.25184 20.6164 8.01086 18.2602 8.58552C16.1568 9.09863 14.5514 9.89068 13.3802 10.7425C13.321 10.7856 13.2499 10.7075 13.2977 10.652L13.2978 10.652ZM20.0512 25.8337C20.0514 25.834 20.0515 25.8345 20.0516 25.8345C20.0519 25.8349 20.0521 25.8358 20.0525 25.8362C20.0521 25.8354 20.0516 25.8345 20.0512 25.8337ZM25.6432 26.4938C25.6834 26.4769 25.7111 26.431 25.7064 26.3855C25.7007 26.3294 25.6507 26.2887 25.5947 26.2944C25.5947 26.2944 22.7008 26.7227 19.9671 25.7221C20.2649 24.7542 21.0567 25.1036 22.2534 25.2003C24.4105 25.3289 26.3437 25.0138 27.7726 24.6036C29.0107 24.2484 30.6368 23.5478 31.8998 22.5509C32.3259 23.4868 32.4762 24.5165 32.4762 24.5165C32.4762 24.5165 32.806 24.4576 33.0816 24.6271C33.342 24.7874 33.533 25.1205 33.4025 25.9819C33.1369 27.591 32.4529 28.8969 31.3035 30.0984C30.6037 30.8516 29.7542 31.5065 28.7823 31.9826C28.2661 32.2537 27.7165 32.4884 27.1359 32.6778C22.8024 34.0932 18.3667 32.5372 16.9369 29.1959C16.8228 28.9446 16.7263 28.6817 16.6502 28.4066C16.0409 26.2047 16.5581 23.563 18.1751 21.9001C18.1753 21.9 18.175 21.8993 18.1751 21.8993C18.2748 21.7934 18.3765 21.6687 18.3765 21.5118C18.3765 21.3805 18.2932 21.242 18.2208 21.1439C17.6551 20.3234 15.6955 18.9251 16.0887 16.2191C16.3713 14.2751 18.0713 12.906 19.6565 12.9871C19.7904 12.9941 19.9246 13.0023 20.0582 13.0101C20.7451 13.0509 21.3444 13.139 21.9098 13.1626C22.8563 13.2035 23.7073 13.0659 24.7153 12.2261C25.0553 11.9427 25.3279 11.6971 25.7893 11.619C25.8377 11.6106 25.9583 11.5674 26.1994 11.5788C26.4455 11.5918 26.6798 11.6595 26.8902 11.7996C27.6984 12.3373 27.8129 13.6397 27.8549 14.5925C27.8788 15.1363 27.9446 16.4521 27.967 16.8298C28.0184 17.6935 28.2455 17.8152 28.7048 17.9665C28.9631 18.0516 29.2029 18.1149 29.5563 18.2141C30.6259 18.5144 31.2602 18.8192 31.6599 19.2105C31.8983 19.4551 32.0092 19.7151 32.0435 19.9629C32.1695 20.883 31.329 22.0198 29.104 23.0526C26.6716 24.1814 23.7208 24.4673 21.682 24.2403C21.5257 24.223 20.9696 24.16 20.9677 24.1596C19.3369 23.94 18.4066 26.0476 19.3854 27.4915C20.0162 28.4221 21.7344 29.0278 23.4534 29.0281C27.395 29.0285 30.4245 27.3453 31.5515 25.8917C31.5852 25.8483 31.5885 25.8435 31.6416 25.7632C31.6971 25.6796 31.6514 25.6335 31.5823 25.6809C30.6615 26.3108 26.572 28.812 22.1975 28.0595C22.1975 28.0595 21.666 27.9722 21.1808 27.7834C20.7952 27.6334 19.9882 27.2621 19.8902 26.4342C23.4204 27.5259 25.6432 26.4938 25.6432 26.4938V26.4938ZM6.2531 18.1042C5.02538 18.343 3.94327 19.0388 3.28162 19.9999C2.88609 19.6701 2.14929 19.0315 2.01919 18.7827C0.962751 16.7768 3.17207 12.8768 4.71545 10.6743C8.52969 5.2312 14.5036 1.11123 17.269 1.85879C17.7187 1.98603 19.2076 3.71235 19.2076 3.71235C19.2076 3.71235 16.4433 5.24618 13.8797 7.38416C10.4255 10.0439 7.81624 13.9095 6.2531 18.1042ZM8.31616 27.3089C8.13033 27.3407 7.94079 27.3533 7.74962 27.3487C5.90236 27.2991 3.90696 25.636 3.70867 23.6638C3.48951 21.4839 4.60337 19.8062 6.57553 19.4083C6.81131 19.3609 7.09625 19.3334 7.4035 19.3494C8.50849 19.4099 10.1369 20.2583 10.5089 22.6656C10.8384 24.7976 10.315 26.968 8.31616 27.3089V27.3089ZM33.3401 23.4488C33.3242 23.3929 33.2211 23.016 33.0795 22.562C32.9379 22.1077 32.7912 21.7882 32.7912 21.7882C33.3593 20.9375 33.3694 20.1769 33.2939 19.746C33.2133 19.212 32.991 18.7568 32.5428 18.2865C32.0947 17.8161 31.1782 17.3342 29.8901 16.9725C29.7428 16.9312 29.257 16.7979 29.2143 16.785C29.2109 16.7571 29.1787 15.1917 29.1495 14.5197C29.1281 14.0339 29.0865 13.2755 28.8511 12.5286C28.5707 11.5175 28.0821 10.6327 27.4723 10.0667C29.1553 8.32213 30.206 6.40021 30.2034 4.75146C30.1986 1.58074 26.3046 0.621408 21.5059 2.60843C21.5008 2.61049 20.4964 3.03641 20.4891 3.03997C20.4846 3.03567 18.651 1.23654 18.6234 1.21252C13.1522 -3.55965 -3.95397 15.4543 1.51521 20.0722L2.71044 21.0848C2.40042 21.888 2.27858 22.8082 2.37811 23.7977C2.50584 25.0686 3.16141 26.2869 4.224 27.2281C5.2327 28.1219 6.55891 28.6875 7.8459 28.6865C9.97419 33.5911 14.8371 36.5999 20.5388 36.7692C26.655 36.9509 31.7892 34.0809 33.9405 28.9256C34.0812 28.5638 34.6784 26.9336 34.6784 25.4946C34.6784 24.0482 33.8607 23.4488 33.3401 23.4488Z" fill="#6B7280"/>
</g>
<defs>
<clipPath id="clip0_1_22539">
<rect width="136" height="37.2277" fill="white"/>
</clipPath>
</defs>
</svg>
