<svg width="150" height="33" viewBox="0 0 150 33" fill="none" xmlns="http://www.w3.org/2000/svg">
<g clip-path="url(#clip0_1_22535)">
<path d="M149.977 15.279V12.6399H146.7V8.53833L146.59 8.57349L143.514 9.51099H143.455V12.6165H138.599V10.8821C138.599 10.0852 138.786 9.46411 139.138 9.05396C139.489 8.6438 140.005 8.43872 140.638 8.43872C141.107 8.43872 141.599 8.55591 142.068 8.76685L142.185 8.81372V6.04692L142.138 6.02349C141.693 5.86528 141.083 5.78325 140.333 5.78325C139.384 5.78325 138.517 5.99419 137.755 6.40903C136.993 6.80747 136.396 7.40513 135.986 8.15513C135.564 8.90513 135.353 9.77232 135.353 10.7215V12.62H133.079V15.2567H135.364V26.3661H138.634V15.2567H143.494V22.3114C143.494 25.2176 144.86 26.6942 147.572 26.6942C148.017 26.6942 148.486 26.6379 148.955 26.5418C149.441 26.4364 149.775 26.3309 149.962 26.2254L150.009 26.202V23.5418L149.877 23.6309C149.701 23.7481 149.479 23.85 149.221 23.9204C148.963 23.9907 148.74 24.0375 148.574 24.0375C147.941 24.0375 147.472 23.8735 147.184 23.5372C146.886 23.2032 146.739 22.6114 146.739 21.7793V15.2872H149.996L149.989 15.2708L149.977 15.279ZM125.73 24.0446C124.543 24.0446 123.606 23.6497 122.941 22.8727C122.282 22.0934 121.945 20.9813 121.945 19.568C121.945 18.1102 122.282 16.9665 122.945 16.1743C123.606 15.3868 124.534 14.986 125.706 14.986C126.843 14.986 127.733 15.368 128.389 16.1227C129.046 16.8821 129.374 18.0141 129.374 19.4883C129.374 20.9813 129.069 22.1286 128.46 22.895C127.85 23.6567 126.936 24.0434 125.741 24.0434L125.73 24.0446ZM125.882 12.3094C123.62 12.3094 121.818 12.9727 120.533 14.2829C119.256 15.5954 118.602 17.4071 118.602 19.6735C118.602 21.8297 119.235 23.5583 120.492 24.818C121.746 26.0836 123.454 26.7399 125.563 26.7399C127.757 26.7399 129.524 26.0602 130.803 24.7418C132.093 23.4153 132.732 21.6176 132.732 19.4063C132.732 17.2196 132.123 15.4735 130.916 14.2266C129.709 12.968 128.017 12.3329 125.877 12.3329L125.882 12.3094ZM113.314 12.3329C111.768 12.3329 110.497 12.7266 109.518 13.5047C108.543 14.2875 108.041 15.3094 108.041 16.5516C108.041 17.2008 108.151 17.7704 108.364 18.2625C108.575 18.7477 108.904 19.1766 109.342 19.5375C109.775 19.8891 110.443 20.2641 111.334 20.6485C112.084 20.9532 112.635 21.211 112.991 21.4219C113.343 21.6176 113.591 21.8204 113.718 22.0161C113.858 22.2036 113.929 22.4731 113.929 22.7895C113.929 23.72 113.239 24.1676 111.819 24.1676C111.289 24.1676 110.687 24.0575 110.028 23.8395C109.364 23.6239 108.748 23.3122 108.192 22.9114L108.052 22.8176V25.9583L108.098 25.9817C108.567 26.1926 109.145 26.3801 109.833 26.5208C110.518 26.6731 111.145 26.7434 111.684 26.7434C113.36 26.7434 114.708 26.345 115.692 25.5668C116.677 24.7793 117.18 23.727 117.18 22.445C117.18 21.5192 116.911 20.7223 116.378 20.0836C115.85 19.4438 114.936 18.8602 113.655 18.3446C112.644 17.9344 111.991 17.5946 111.71 17.3368C111.452 17.0836 111.332 16.7274 111.332 16.2774C111.332 15.879 111.496 15.5579 111.83 15.3C112.165 15.0364 112.634 14.9051 113.22 14.9051C113.764 14.9051 114.321 14.9872 114.884 15.1571C115.434 15.3305 115.921 15.5555 116.325 15.8321L116.462 15.9258V12.9258L116.415 12.9024C116.034 12.7383 115.54 12.6012 114.939 12.4922C114.341 12.3786 113.798 12.3282 113.327 12.3282L113.314 12.3329ZM99.4992 24.0586C98.3156 24.0586 97.3781 23.6672 96.7219 22.8868C96.0539 22.1133 95.7199 21 95.7199 19.5821C95.7199 18.129 96.0551 16.9805 96.7207 16.1918C97.3769 15.4043 98.3074 15.0036 99.4746 15.0036C100.611 15.0036 101.514 15.3856 102.164 16.1403C102.811 16.902 103.148 18.034 103.148 19.5083C103.148 20.9989 102.832 22.145 102.223 22.9125C101.625 23.6743 100.711 24.061 99.5039 24.061L99.4992 24.0586ZM99.668 12.3305C97.3945 12.3305 95.5898 12.9915 94.3125 14.3016C93.0269 15.6141 92.3789 17.4247 92.3789 19.6922C92.3789 21.8485 93.0117 23.5758 94.2574 24.8368C95.5137 26.1024 97.2176 26.7586 99.3258 26.7586C101.529 26.7586 103.287 26.079 104.576 24.7547C105.858 23.4258 106.509 21.6282 106.509 19.4168C106.509 17.229 105.9 15.4829 104.705 14.2372C103.498 12.9774 101.803 12.3422 99.6656 12.3422L99.668 12.3305ZM87.4336 15.0469V12.6563H84.1992V26.4024H87.4336V19.3711C87.4336 18.1758 87.7031 17.1915 88.2387 16.4473C88.766 15.7067 89.4691 15.3458 90.3246 15.3458C90.6176 15.3458 90.9457 15.3926 91.3066 15.4864C91.6582 15.5801 91.9113 15.6739 92.0566 15.7911L92.1973 15.8848V12.627L92.1457 12.6036C91.841 12.4676 91.4191 12.402 90.8801 12.402C90.0715 12.402 89.3449 12.6645 88.7215 13.1754C88.1707 13.6301 87.7758 14.2489 87.4734 15.0223H87.4148L87.4441 15.0458L87.4336 15.0469ZM78.3867 12.3282C76.8984 12.3282 75.5742 12.6387 74.4492 13.2657C73.3148 13.8985 72.4453 14.7891 71.8476 15.9375C71.2617 17.0743 70.957 18.4043 70.957 19.8868C70.957 21.1875 71.2523 22.3758 71.8242 23.4282C72.4031 24.4829 73.2187 25.3032 74.25 25.8774C75.2742 26.4434 76.4648 26.7329 77.782 26.7329C79.3195 26.7329 80.6297 26.4282 81.6844 25.8188L81.7312 25.7954V22.8282L81.5906 22.9254C81.1137 23.277 80.5828 23.5524 80.0086 23.7516C79.4367 23.9508 78.9164 24.0516 78.4617 24.0516C77.189 24.0516 76.1719 23.6532 75.4312 22.8739C74.6812 22.077 74.3062 20.9754 74.3062 19.5926C74.3062 18.1864 74.7047 17.0614 75.4734 16.2411C76.2469 15.3973 77.2641 14.9754 78.5086 14.9754C79.5633 14.9754 80.6027 15.3387 81.5824 16.0418L81.723 16.1356V13.0184L81.6844 12.995C81.3152 12.784 80.8137 12.62 80.1844 12.4864C79.568 12.3575 78.9609 12.2942 78.382 12.2942L78.3867 12.3282ZM68.7375 12.6223H65.5078V26.3801H68.7422V12.6223H68.7375ZM67.1437 6.77466C66.6117 6.77466 66.1476 6.95513 65.7656 7.31372C65.3836 7.67466 65.189 8.127 65.189 8.66138C65.189 9.18872 65.3848 9.63403 65.7633 9.9856C66.1383 10.3372 66.607 10.5106 67.1461 10.5106C67.6852 10.5106 68.1539 10.3348 68.5348 9.98325C68.9191 9.63169 69.1137 9.18638 69.1137 8.65903C69.1137 8.14341 68.9262 7.6981 68.5512 7.3231C68.1762 6.97153 67.7074 6.78403 67.1449 6.78403L67.1437 6.77466ZM59.0707 11.6239V26.3895H62.3754V7.2188H57.8051L52.0125 21.4665L46.3758 7.21645H41.625V26.4024H44.7305V11.6426H44.8359L50.7891 26.4059H53.1269L58.9863 11.6438H59.0976L59.0801 11.6368L59.0707 11.6239ZM16.8012 17.5887H32.0121V32.8125H16.7777L16.7988 17.5993L16.8012 17.5887ZM-1.22068e-05 17.5981H15.2086V32.8125H-0.00469971L-1.22068e-05 17.5993V17.5981ZM16.8023 0.796924H32.0133V16.0079H16.793L16.8023 0.792236V0.796924ZM-1.22068e-05 0.79458H15.2086V16.0079H-0.00469971L-1.22068e-05 0.792236V0.79458Z" fill="#6B7280"/>
</g>
<defs>
<clipPath id="clip0_1_22535">
<rect width="150" height="32.8125" fill="white"/>
</clipPath>
</defs>
</svg>
