<svg width="128" height="40" viewBox="0 0 128 40" fill="none" xmlns="http://www.w3.org/2000/svg">
<path d="M51.5488 18.1474C55.4435 19.0942 57.0313 20.5643 57.0313 23.2223C57.0313 26.3672 54.6285 28.3995 50.9096 28.3995C48.281 28.3995 45.8441 27.4657 43.8635 25.6974C43.8229 25.6611 43.798 25.6104 43.7943 25.556C43.7905 25.5016 43.8082 25.4479 43.8436 25.4063L45.5936 23.3246C45.6115 23.3034 45.6334 23.2858 45.6581 23.2731C45.6828 23.2604 45.7098 23.2527 45.7374 23.2505C45.7651 23.2483 45.793 23.2517 45.8194 23.2604C45.8458 23.2691 45.8702 23.2829 45.8912 23.3011C47.5936 24.7748 49.1155 25.4028 50.9808 25.4028C52.6608 25.4028 53.7046 24.6754 53.7046 23.5063C53.7046 22.4508 53.1883 21.861 50.1293 21.1565C46.5363 20.2873 44.4563 19.163 44.4563 15.9845C44.4563 13.0207 46.8673 10.9508 50.318 10.9508C52.6644 10.9508 54.6738 11.6459 56.4573 13.0766C56.5432 13.146 56.5608 13.2707 56.4967 13.3612L54.9354 15.5606C54.9191 15.5832 54.8985 15.6023 54.8747 15.6169C54.851 15.6315 54.8246 15.6413 54.797 15.6457C54.7695 15.65 54.7413 15.6489 54.7142 15.6424C54.6871 15.6359 54.6616 15.624 54.6391 15.6076C53.1407 14.4903 51.7117 13.9481 50.2698 13.9481C48.7832 13.9481 47.7835 14.6626 47.7835 15.724C47.7835 16.8472 48.3539 17.3823 51.5494 18.1456L51.5488 18.1474ZM65.4445 14.9954C63.8333 14.9954 62.5113 15.6305 61.4205 16.9301V15.4659C61.4205 15.4104 61.3984 15.3571 61.3592 15.3178C61.3199 15.2786 61.2667 15.2565 61.2111 15.2565H58.3497C58.2942 15.2565 58.2409 15.2786 58.2016 15.3178C58.1624 15.3571 58.1403 15.4104 58.1403 15.4659V31.7373C58.1403 31.852 58.2344 31.9461 58.3497 31.9461H61.2117C61.3276 31.9461 61.4217 31.852 61.4217 31.7368V26.6001C62.5119 27.8233 63.8345 28.4219 65.4463 28.4219C68.4425 28.4219 71.4739 26.1167 71.4739 21.7087C71.4739 17.3006 68.4407 14.9954 65.4445 14.9954ZM68.1437 21.7093C68.1437 23.9533 66.7618 25.5198 64.7824 25.5198C62.8242 25.5198 61.3482 23.8821 61.3482 21.7093C61.3482 19.5364 62.8242 17.8987 64.7824 17.8987C66.73 17.8987 68.1443 19.5011 68.1443 21.7093H68.1437ZM79.2444 14.9954C75.3868 14.9954 72.3654 17.9651 72.3654 21.7581C72.3654 25.5087 75.3656 28.4472 79.1962 28.4472C83.0674 28.4472 86.0982 25.4869 86.0982 21.7093C86.0982 17.9445 83.0873 14.9948 79.2438 14.9948L79.2444 14.9954ZM79.2438 25.5428C77.1915 25.5428 75.6449 23.8945 75.6449 21.7087C75.6449 19.514 77.1386 17.9216 79.1968 17.9216C81.2609 17.9216 82.8192 19.5699 82.8192 21.7569C82.8192 23.9503 81.315 25.5422 79.2438 25.5422V25.5428ZM94.3357 15.2565C94.4515 15.2565 94.545 15.3506 94.545 15.4659V17.9257C94.5451 17.9532 94.5397 17.9804 94.5293 18.0058C94.5188 18.0312 94.5035 18.0543 94.4841 18.0737C94.4647 18.0932 94.4416 18.1086 94.4163 18.1191C94.3909 18.1296 94.3637 18.1351 94.3362 18.1351H91.1872V24.0515C91.1872 24.9865 91.5977 25.4028 92.5162 25.4028C93.1007 25.406 93.6771 25.2667 94.1957 24.9971C94.2278 24.9812 94.2633 24.9737 94.2991 24.9754C94.3348 24.9771 94.3696 24.9878 94.4 25.0067C94.4304 25.0255 94.4556 25.0518 94.473 25.083C94.4904 25.1143 94.4996 25.1495 94.4997 25.1852V27.5269C94.4997 27.6016 94.4586 27.6721 94.3939 27.7092C93.5912 28.1637 92.7397 28.3754 91.7123 28.3754C89.1878 28.3754 87.9076 27.0717 87.9076 24.499V18.1356H86.5316C86.5042 18.1356 86.477 18.1301 86.4517 18.1195C86.4264 18.109 86.4035 18.0935 86.3841 18.0741C86.3648 18.0546 86.3495 18.0316 86.3391 18.0062C86.3287 17.9809 86.3233 17.9537 86.3234 17.9263V15.4659C86.3234 15.3506 86.4163 15.2565 86.5316 15.2565H87.9076V12.0363C87.9076 11.9211 88.0017 11.827 88.1182 11.827H90.9796C91.0955 11.827 91.189 11.9211 91.189 12.0363V15.2565H94.338H94.3357ZM110.198 15.2689C110.285 15.2689 110.363 15.3218 110.394 15.4041L113.737 24.1273L116.789 15.4088C116.804 15.3677 116.83 15.332 116.866 15.3067C116.901 15.2815 116.944 15.2678 116.988 15.2677H119.967C120.001 15.2677 120.035 15.276 120.065 15.292C120.095 15.308 120.121 15.3311 120.14 15.3594C120.159 15.3876 120.171 15.4202 120.175 15.4541C120.179 15.4881 120.174 15.5224 120.161 15.5541L115.196 28.3854C114.167 31.0334 112.998 32.0178 110.885 32.0178C109.755 32.0178 108.841 31.7838 107.827 31.2357C107.781 31.2106 107.746 31.1685 107.729 31.1182C107.712 31.0679 107.716 31.0132 107.738 30.9652L108.708 28.8365C108.72 28.8102 108.737 28.7867 108.758 28.7673C108.78 28.7479 108.805 28.733 108.832 28.7236C108.859 28.7148 108.888 28.7117 108.917 28.7144C108.946 28.7171 108.974 28.7256 108.999 28.7394C109.542 29.0364 110.073 29.1864 110.578 29.1864C111.201 29.1864 111.658 28.9817 112.123 27.9503L108.03 18.1356H105.357V27.9532C105.357 28.0691 105.263 28.1631 105.148 28.1631H102.286C102.258 28.1631 102.231 28.1577 102.205 28.1472C102.18 28.1366 102.157 28.1211 102.137 28.1016C102.118 28.0821 102.102 28.059 102.092 28.0335C102.081 28.008 102.076 27.9808 102.076 27.9532V18.1356H100.701C100.646 18.1352 100.593 18.1129 100.553 18.0736C100.514 18.0344 100.492 17.9812 100.491 17.9257V15.4541C100.491 15.3383 100.585 15.2442 100.701 15.2442H102.076V14.6385C102.076 11.8241 103.473 10.3351 106.117 10.3351C107.203 10.3351 107.928 10.5086 108.495 10.6762C108.585 10.7038 108.644 10.7856 108.644 10.8773V13.2883C108.645 13.3216 108.637 13.3546 108.622 13.3844C108.607 13.4142 108.585 13.44 108.558 13.4596C108.531 13.4792 108.5 13.492 108.467 13.497C108.434 13.502 108.401 13.499 108.369 13.4883C107.832 13.3095 107.353 13.1907 106.757 13.1907C105.757 13.1907 105.31 13.7099 105.31 14.8737V15.2689H110.198H110.198ZM98.9478 15.2565C99.063 15.2565 99.1571 15.3506 99.1571 15.4659V27.9526C99.1571 28.0679 99.063 28.162 98.9472 28.162H96.0851C96.0295 28.162 95.9762 28.1399 95.9369 28.1007C95.8975 28.0614 95.8753 28.0082 95.8752 27.9526V15.4659C95.8752 15.3506 95.9693 15.2565 96.0845 15.2565H98.9466H98.9478ZM97.5311 9.57122C98.0754 9.57122 98.5975 9.78745 98.9823 10.1723C99.3672 10.5572 99.5835 11.0792 99.5835 11.6235C99.5835 12.1678 99.3672 12.6899 98.9823 13.0747C98.5975 13.4596 98.0754 13.6758 97.5311 13.6758C96.9868 13.6758 96.4648 13.4596 96.0799 13.0747C95.6951 12.6899 95.4788 12.1678 95.4788 11.6235C95.4788 11.0792 95.6951 10.5572 96.0799 10.1723C96.4648 9.78745 96.9868 9.57122 97.5311 9.57122ZM122.605 19.2706C122.34 19.2716 122.077 19.2202 121.833 19.1193C121.588 19.0185 121.365 18.8702 121.178 18.6829C120.991 18.4957 120.843 18.2733 120.742 18.0285C120.641 17.7836 120.59 17.5213 120.591 17.2565C120.591 16.9906 120.643 16.7274 120.745 16.4818C120.846 16.2362 120.996 16.013 121.184 15.8251C121.372 15.6371 121.595 15.488 121.84 15.3863C122.086 15.2846 122.349 15.2323 122.615 15.2324C122.88 15.2313 123.142 15.2825 123.387 15.3832C123.632 15.484 123.854 15.6322 124.042 15.8193C124.229 16.0065 124.377 16.2288 124.478 16.4736C124.579 16.7183 124.63 16.9806 124.629 17.2453C124.629 17.5113 124.577 17.7747 124.475 18.0204C124.374 18.2662 124.225 18.4895 124.036 18.6776C123.848 18.8657 123.625 19.0149 123.38 19.1168C123.134 19.2186 122.871 19.2711 122.605 19.2712V19.2706ZM122.615 15.4329C121.584 15.4329 120.803 16.2533 120.803 17.2571C120.803 18.2609 121.578 19.0701 122.605 19.0701C123.636 19.0701 124.418 18.2503 124.418 17.2459C124.418 16.2421 123.641 15.4329 122.615 15.4329ZM123.062 17.4529L123.631 18.2503H123.151L122.639 17.5188H122.198V18.2503H121.795V16.1363H122.739C123.229 16.1363 123.553 16.3879 123.553 16.8108C123.553 17.1577 123.353 17.3694 123.062 17.4517L123.062 17.4529ZM122.72 16.4991H122.197V17.1671H122.72C122.983 17.1671 123.138 17.0389 123.138 16.8319C123.138 16.6143 122.983 16.4985 122.72 16.4985V16.4991ZM19.6957 1.05737C9.47178 1.05737 1.18375 9.46067 1.18375 19.6852C1.18316 29.2922 8.49973 37.0475 17.8651 38.2236H21.5263C30.8917 37.0475 38.2082 29.2922 38.2082 19.6846C38.2082 9.46067 29.9196 1.05737 19.6963 1.05737H19.6957ZM28.1854 27.7586C28.1066 27.8881 28.0029 28.0008 27.8805 28.0901C27.758 28.1795 27.6191 28.2439 27.4717 28.2795C27.3243 28.3151 27.1714 28.3213 27.0216 28.2977C26.8718 28.2741 26.7282 28.2212 26.5989 28.142C22.2514 25.4851 16.7801 24.8853 10.3362 26.3572C10.1886 26.3912 10.0357 26.3957 9.88626 26.3705C9.73686 26.3453 9.59389 26.2909 9.46554 26.2104C9.33719 26.1299 9.22597 26.0248 9.13825 25.9013C9.05052 25.7778 8.98801 25.6382 8.9543 25.4904C8.92037 25.3427 8.91591 25.1897 8.94119 25.0403C8.96647 24.8908 9.02098 24.7478 9.1016 24.6194C9.18223 24.4911 9.28738 24.3799 9.41104 24.2922C9.53471 24.2045 9.67445 24.1421 9.82226 24.1085C16.8742 22.4972 22.9229 23.1911 27.8026 26.1726C28.0635 26.3325 28.2503 26.5893 28.3219 26.8868C28.3936 27.1843 28.3443 27.498 28.1848 27.7592L28.1854 27.7586ZM30.4506 22.7178C30.2503 23.0438 29.9288 23.277 29.5566 23.3661C29.1845 23.4552 28.7922 23.3929 28.4659 23.1929C23.491 20.135 15.9051 19.2488 10.0187 21.0359C9.65232 21.1465 9.25709 21.1074 8.9195 20.9272C8.58191 20.747 8.32948 20.4404 8.21746 20.0745C7.98812 19.31 8.4174 18.5061 9.18011 18.275C15.9045 16.2345 24.2625 17.2224 29.9766 20.7331C30.3026 20.9335 30.5357 21.2551 30.6247 21.6272C30.7137 21.9994 30.6513 22.3916 30.4512 22.7178H30.4506ZM30.6459 17.4688C24.6783 13.9252 14.8354 13.5994 9.13894 15.3283C8.69944 15.4615 8.22504 15.4146 7.82008 15.198C7.41513 14.9814 7.1128 14.6128 6.97961 14.1733C6.84642 13.7338 6.89327 13.2594 7.10987 12.8545C7.32646 12.4495 7.69505 12.1472 8.13455 12.014C14.6737 10.0293 25.5445 10.4127 32.4141 14.4897C32.6097 14.6057 32.7806 14.7591 32.9169 14.9411C33.0532 15.1232 33.1523 15.3303 33.2086 15.5506C33.2648 15.771 33.2771 16.0002 33.2447 16.2253C33.2123 16.4504 33.1359 16.667 33.0198 16.8625C32.9039 17.0583 32.7505 17.2292 32.5684 17.3656C32.3863 17.502 32.1792 17.6012 31.9587 17.6575C31.7383 17.7137 31.5089 17.726 31.2837 17.6935C31.0586 17.661 30.842 17.5845 30.6464 17.4682L30.6459 17.4688Z" fill="#6B7280"/>
</svg>
